<svg version="1.1"  xmlns="http://www.w3.org/2000/svg" xmlns:xlink="http://www.w3.org/1999/xlink" x="0px" y="0px"
	 viewBox="0 0 91.4 91.4" style="enable-background:new 0 0 91.4 91.4;" xml:space="preserve">
<g>
	<path fill="#E8C5F1" d="M82.3,1.8C78.8,0,74.1,0,64.8,0H26.6c-9.3,0-14,0-17.5,1.8C6,3.4,3.4,5.9,1.8,9.1C0,12.7,0,17.3,0,26.6v38.2
		c0,9.3,0,14,1.8,17.5c1.6,3.1,4.1,5.7,7.3,7.3c3.6,1.8,8.2,1.8,17.5,1.8h38.2c9.3,0,14,0,17.5-1.8c3.1-1.6,5.7-4.1,7.3-7.3
		c1.8-3.6,1.8-8.2,1.8-17.5V26.6c0-9.3,0-14-1.8-17.5C88,5.9,85.4,3.4,82.3,1.8z"/>
</g>
<g>
	<polygon points="43.2,53.5 42.9,53.5 35.9,27.2 30.3,27.2 23.4,53.5 23,53.5 17,27.2 10.4,27.2 19.9,62.3 25.8,62.3 32.9,37.1 
		33.3,37.1 40.4,62.3 46.3,62.3 55.7,27.2 49.2,27.2 	"/>
	<path d="M76.3,13.1h-4.8C67.9,18.6,63.8,25,60.3,31v3h12.8v5.5h3.2V34H80v-3h-3.7V13.1z M73.1,31.1h-9.5v-0.2
		c2.9-4.8,6.3-10.3,9.3-14.7h0.2V31.1z"/>
</g>
</svg>


